<mxfile host="app.diagrams.net" agent="Mozilla/5.0 (Windows NT 10.0; Win64; x64; rv:137.0) Gecko/20100101 Firefox/137.0" version="26.2.13">
  <diagram name="Страница — 1" id="CNGbqbiZIYPsTiG5xjIv">
    <mxGraphModel dx="2995" dy="2367" grid="0" gridSize="10" guides="1" tooltips="1" connect="1" arrows="1" fold="1" page="1" pageScale="1" pageWidth="827" pageHeight="1169" math="0" shadow="0">
      <root>
        <mxCell id="0" />
        <mxCell id="1" parent="0" />
        <mxCell id="M0X-V-5y8funfRK-0tcY-1" value="&lt;div&gt;KAFKA OSS&lt;/div&gt;" style="swimlane;whiteSpace=wrap;html=1;shadow=0;" parent="1" vertex="1">
          <mxGeometry x="107" y="1120" width="583" height="170" as="geometry">
            <mxRectangle x="130" y="150" width="110" height="30" as="alternateBounds" />
          </mxGeometry>
        </mxCell>
        <mxCell id="M0X-V-5y8funfRK-0tcY-4" value="topic: to NTTM" style="rounded=0;whiteSpace=wrap;html=1;" parent="M0X-V-5y8funfRK-0tcY-1" vertex="1">
          <mxGeometry x="445" y="60" width="120" height="20" as="geometry" />
        </mxCell>
        <mxCell id="M0X-V-5y8funfRK-0tcY-5" value="topic: from NTTM" style="rounded=0;whiteSpace=wrap;html=1;" parent="M0X-V-5y8funfRK-0tcY-1" vertex="1">
          <mxGeometry x="362" y="101" width="120" height="20" as="geometry" />
        </mxCell>
        <mxCell id="cNODSZMe_9CNLNFrirEU-1" value="Topic to CEP" style="rounded=0;whiteSpace=wrap;html=1;" vertex="1" parent="M0X-V-5y8funfRK-0tcY-1">
          <mxGeometry x="14" y="96" width="120" height="30" as="geometry" />
        </mxCell>
        <mxCell id="cNODSZMe_9CNLNFrirEU-2" value="Topic from CEP" style="rounded=0;whiteSpace=wrap;html=1;" vertex="1" parent="M0X-V-5y8funfRK-0tcY-1">
          <mxGeometry x="154" y="96" width="120" height="30" as="geometry" />
        </mxCell>
        <mxCell id="cNODSZMe_9CNLNFrirEU-16" value="" style="shape=flexArrow;endArrow=classic;html=1;rounded=0;exitX=0.373;exitY=0.989;exitDx=0;exitDy=0;entryX=0.5;entryY=0;entryDx=0;entryDy=0;fillColor=#FFFFFF;exitPerimeter=0;" edge="1" parent="M0X-V-5y8funfRK-0tcY-1" source="M0X-V-5y8funfRK-0tcY-36">
          <mxGeometry width="50" height="50" relative="1" as="geometry">
            <mxPoint x="214.5" y="-9" as="sourcePoint" />
            <mxPoint x="213.5" y="96" as="targetPoint" />
          </mxGeometry>
        </mxCell>
        <mxCell id="v_URH__aFRRFZnjGPoym-18" value="" style="rounded=1;whiteSpace=wrap;html=1;" parent="1" vertex="1">
          <mxGeometry x="974" y="1847" width="225" height="153" as="geometry" />
        </mxCell>
        <mxCell id="v_URH__aFRRFZnjGPoym-21" value="" style="rounded=0;whiteSpace=wrap;html=1;" parent="1" vertex="1">
          <mxGeometry x="985" y="1856" width="206" height="96" as="geometry" />
        </mxCell>
        <mxCell id="43ak4_L_ta3FqxEy_fTI-20" value="" style="rounded=0;whiteSpace=wrap;html=1;" parent="1" vertex="1">
          <mxGeometry x="1570" y="1280" width="360" height="320" as="geometry" />
        </mxCell>
        <mxCell id="43ak4_L_ta3FqxEy_fTI-19" value="" style="rounded=0;whiteSpace=wrap;html=1;" parent="1" vertex="1">
          <mxGeometry x="1170" y="1280" width="400" height="320" as="geometry" />
        </mxCell>
        <mxCell id="M0X-V-5y8funfRK-0tcY-36" value="" style="shape=cube;whiteSpace=wrap;html=1;boundedLbl=1;backgroundOutline=1;darkOpacity=0.05;darkOpacity2=0.1;" parent="1" vertex="1">
          <mxGeometry x="101" y="976" width="591" height="100" as="geometry" />
        </mxCell>
        <mxCell id="Ng3tPyINmZJw2xmhOUaY-4" value="&lt;div&gt;KAFKA OSS&lt;/div&gt;" style="swimlane;whiteSpace=wrap;html=1;" parent="1" vertex="1">
          <mxGeometry x="130" y="150" width="550" height="170" as="geometry">
            <mxRectangle x="130" y="150" width="110" height="30" as="alternateBounds" />
          </mxGeometry>
        </mxCell>
        <mxCell id="Ng3tPyINmZJw2xmhOUaY-5" value="Topic to CEP" style="rounded=0;whiteSpace=wrap;html=1;" parent="Ng3tPyINmZJw2xmhOUaY-4" vertex="1">
          <mxGeometry x="10" y="50" width="120" height="30" as="geometry" />
        </mxCell>
        <mxCell id="Ng3tPyINmZJw2xmhOUaY-6" value="Topic from CEP" style="rounded=0;whiteSpace=wrap;html=1;" parent="Ng3tPyINmZJw2xmhOUaY-4" vertex="1">
          <mxGeometry x="150" y="50" width="120" height="30" as="geometry" />
        </mxCell>
        <mxCell id="Ng3tPyINmZJw2xmhOUaY-28" value="topic to NTTM" style="rounded=0;whiteSpace=wrap;html=1;" parent="Ng3tPyINmZJw2xmhOUaY-4" vertex="1">
          <mxGeometry x="410" y="30" width="120" height="20" as="geometry" />
        </mxCell>
        <mxCell id="Ng3tPyINmZJw2xmhOUaY-29" value="topic from NTTM" style="rounded=0;whiteSpace=wrap;html=1;" parent="Ng3tPyINmZJw2xmhOUaY-4" vertex="1">
          <mxGeometry x="410" y="70" width="120" height="20" as="geometry" />
        </mxCell>
        <mxCell id="Ng3tPyINmZJw2xmhOUaY-32" value="Topic from SOVA to CEP" style="rounded=0;whiteSpace=wrap;html=1;" parent="Ng3tPyINmZJw2xmhOUaY-4" vertex="1">
          <mxGeometry x="284" y="50" width="120" height="30" as="geometry" />
        </mxCell>
        <mxCell id="Ng3tPyINmZJw2xmhOUaY-30" style="edgeStyle=orthogonalEdgeStyle;rounded=0;orthogonalLoop=1;jettySize=auto;html=1;" parent="1" source="Ng3tPyINmZJw2xmhOUaY-1" target="Ng3tPyINmZJw2xmhOUaY-28" edge="1">
          <mxGeometry relative="1" as="geometry" />
        </mxCell>
        <mxCell id="Ng3tPyINmZJw2xmhOUaY-1" value="" style="rounded=0;whiteSpace=wrap;html=1;" parent="1" vertex="1">
          <mxGeometry x="130" y="40" width="280" height="30" as="geometry" />
        </mxCell>
        <mxCell id="Ng3tPyINmZJw2xmhOUaY-9" style="edgeStyle=orthogonalEdgeStyle;rounded=0;orthogonalLoop=1;jettySize=auto;html=1;exitX=0.75;exitY=1;exitDx=0;exitDy=0;shadow=1;" parent="1" source="Ng3tPyINmZJw2xmhOUaY-1" target="Ng3tPyINmZJw2xmhOUaY-6" edge="1">
          <mxGeometry relative="1" as="geometry" />
        </mxCell>
        <mxCell id="Ng3tPyINmZJw2xmhOUaY-2" value="CEP" style="text;html=1;align=center;verticalAlign=middle;whiteSpace=wrap;rounded=0;" parent="1" vertex="1">
          <mxGeometry x="240" y="40" width="60" height="30" as="geometry" />
        </mxCell>
        <mxCell id="Ng3tPyINmZJw2xmhOUaY-7" style="edgeStyle=orthogonalEdgeStyle;rounded=0;orthogonalLoop=1;jettySize=auto;html=1;entryX=0.25;entryY=1;entryDx=0;entryDy=0;" parent="1" source="Ng3tPyINmZJw2xmhOUaY-5" target="Ng3tPyINmZJw2xmhOUaY-1" edge="1">
          <mxGeometry relative="1" as="geometry" />
        </mxCell>
        <mxCell id="Ng3tPyINmZJw2xmhOUaY-12" style="edgeStyle=orthogonalEdgeStyle;rounded=0;orthogonalLoop=1;jettySize=auto;html=1;exitX=0.158;exitY=0.029;exitDx=0;exitDy=0;exitPerimeter=0;" parent="1" source="Ng3tPyINmZJw2xmhOUaY-10" target="Ng3tPyINmZJw2xmhOUaY-5" edge="1">
          <mxGeometry relative="1" as="geometry" />
        </mxCell>
        <mxCell id="Ng3tPyINmZJw2xmhOUaY-10" value="" style="shape=cube;whiteSpace=wrap;html=1;boundedLbl=1;backgroundOutline=1;darkOpacity=0.05;darkOpacity2=0.1;" parent="1" vertex="1">
          <mxGeometry x="110" y="370" width="570" height="170" as="geometry" />
        </mxCell>
        <mxCell id="Ng3tPyINmZJw2xmhOUaY-11" value="SQM" style="text;html=1;align=center;verticalAlign=middle;whiteSpace=wrap;rounded=0;" parent="1" vertex="1">
          <mxGeometry x="375" y="500" width="60" height="30" as="geometry" />
        </mxCell>
        <mxCell id="Ng3tPyINmZJw2xmhOUaY-13" style="edgeStyle=orthogonalEdgeStyle;rounded=0;orthogonalLoop=1;jettySize=auto;html=1;entryX=0.404;entryY=0;entryDx=0;entryDy=0;entryPerimeter=0;" parent="1" source="Ng3tPyINmZJw2xmhOUaY-6" target="Ng3tPyINmZJw2xmhOUaY-10" edge="1">
          <mxGeometry relative="1" as="geometry" />
        </mxCell>
        <mxCell id="Ng3tPyINmZJw2xmhOUaY-31" style="edgeStyle=orthogonalEdgeStyle;rounded=0;orthogonalLoop=1;jettySize=auto;html=1;exitX=-0.004;exitY=0.824;exitDx=0;exitDy=0;exitPerimeter=0;" parent="1" source="Ng3tPyINmZJw2xmhOUaY-14" target="Ng3tPyINmZJw2xmhOUaY-29" edge="1">
          <mxGeometry relative="1" as="geometry" />
        </mxCell>
        <mxCell id="Ng3tPyINmZJw2xmhOUaY-14" value="" style="shape=cube;whiteSpace=wrap;html=1;boundedLbl=1;backgroundOutline=1;darkOpacity=0.05;darkOpacity2=0.1;" parent="1" vertex="1">
          <mxGeometry x="810" y="90" width="230" height="170" as="geometry" />
        </mxCell>
        <mxCell id="Ng3tPyINmZJw2xmhOUaY-16" value="NTTM" style="text;html=1;align=center;verticalAlign=middle;whiteSpace=wrap;rounded=0;" parent="1" vertex="1">
          <mxGeometry x="910" y="120" width="60" height="30" as="geometry" />
        </mxCell>
        <mxCell id="Ng3tPyINmZJw2xmhOUaY-17" value="" style="shape=cube;whiteSpace=wrap;html=1;boundedLbl=1;backgroundOutline=1;darkOpacity=0.05;darkOpacity2=0.1;" parent="1" vertex="1">
          <mxGeometry x="530" y="-80" width="120" height="80" as="geometry" />
        </mxCell>
        <mxCell id="Ng3tPyINmZJw2xmhOUaY-33" style="edgeStyle=orthogonalEdgeStyle;rounded=0;orthogonalLoop=1;jettySize=auto;html=1;entryX=0.75;entryY=0;entryDx=0;entryDy=0;" parent="1" target="Ng3tPyINmZJw2xmhOUaY-32" edge="1">
          <mxGeometry relative="1" as="geometry">
            <mxPoint x="540" y="-35" as="sourcePoint" />
          </mxGeometry>
        </mxCell>
        <mxCell id="Ng3tPyINmZJw2xmhOUaY-38" style="edgeStyle=orthogonalEdgeStyle;rounded=0;orthogonalLoop=1;jettySize=auto;html=1;" parent="1" source="Ng3tPyINmZJw2xmhOUaY-19" target="Ng3tPyINmZJw2xmhOUaY-23" edge="1">
          <mxGeometry relative="1" as="geometry" />
        </mxCell>
        <mxCell id="Ng3tPyINmZJw2xmhOUaY-19" value="SOVA" style="text;html=1;align=center;verticalAlign=middle;whiteSpace=wrap;rounded=0;" parent="1" vertex="1">
          <mxGeometry x="570" y="-50" width="60" height="30" as="geometry" />
        </mxCell>
        <mxCell id="Ng3tPyINmZJw2xmhOUaY-20" value="Argus" style="shape=cylinder3;whiteSpace=wrap;html=1;boundedLbl=1;backgroundOutline=1;size=15;" parent="1" vertex="1">
          <mxGeometry x="1020" y="-80" width="60" height="80" as="geometry" />
        </mxCell>
        <mxCell id="Ng3tPyINmZJw2xmhOUaY-22" value="ASRZ" style="shape=cylinder3;whiteSpace=wrap;html=1;boundedLbl=1;backgroundOutline=1;size=15;" parent="1" vertex="1">
          <mxGeometry x="880" y="-80" width="60" height="80" as="geometry" />
        </mxCell>
        <mxCell id="Ng3tPyINmZJw2xmhOUaY-39" style="edgeStyle=orthogonalEdgeStyle;rounded=0;orthogonalLoop=1;jettySize=auto;html=1;" parent="1" source="Ng3tPyINmZJw2xmhOUaY-23" target="Ng3tPyINmZJw2xmhOUaY-24" edge="1">
          <mxGeometry relative="1" as="geometry" />
        </mxCell>
        <mxCell id="Ng3tPyINmZJw2xmhOUaY-23" value="TG" style="shape=cylinder3;whiteSpace=wrap;html=1;boundedLbl=1;backgroundOutline=1;size=15;" parent="1" vertex="1">
          <mxGeometry x="710" y="-10" width="60" height="80" as="geometry" />
        </mxCell>
        <mxCell id="Ng3tPyINmZJw2xmhOUaY-24" value="" style="shape=cube;whiteSpace=wrap;html=1;boundedLbl=1;backgroundOutline=1;darkOpacity=0.05;darkOpacity2=0.1;" parent="1" vertex="1">
          <mxGeometry x="1260" y="100" width="180" height="160" as="geometry" />
        </mxCell>
        <mxCell id="Ng3tPyINmZJw2xmhOUaY-25" value="CRM" style="text;html=1;align=center;verticalAlign=middle;whiteSpace=wrap;rounded=0;" parent="1" vertex="1">
          <mxGeometry x="1330" y="130" width="60" height="30" as="geometry" />
        </mxCell>
        <mxCell id="Ng3tPyINmZJw2xmhOUaY-26" value="" style="shape=flexArrow;endArrow=classic;html=1;rounded=0;entryX=0;entryY=0;entryDx=230;entryDy=95;entryPerimeter=0;exitX=0.056;exitY=0.531;exitDx=0;exitDy=0;exitPerimeter=0;" parent="1" source="Ng3tPyINmZJw2xmhOUaY-24" target="Ng3tPyINmZJw2xmhOUaY-14" edge="1">
          <mxGeometry width="50" height="50" relative="1" as="geometry">
            <mxPoint x="1200" y="240" as="sourcePoint" />
            <mxPoint x="1250" y="190" as="targetPoint" />
          </mxGeometry>
        </mxCell>
        <mxCell id="Ng3tPyINmZJw2xmhOUaY-27" value="ODBC" style="edgeLabel;html=1;align=center;verticalAlign=middle;resizable=0;points=[];" parent="Ng3tPyINmZJw2xmhOUaY-26" vertex="1" connectable="0">
          <mxGeometry x="0.2264" y="1" relative="1" as="geometry">
            <mxPoint as="offset" />
          </mxGeometry>
        </mxCell>
        <mxCell id="Ng3tPyINmZJw2xmhOUaY-34" style="edgeStyle=orthogonalEdgeStyle;rounded=0;orthogonalLoop=1;jettySize=auto;html=1;exitX=0.5;exitY=0;exitDx=0;exitDy=0;" parent="1" source="Ng3tPyINmZJw2xmhOUaY-32" target="Ng3tPyINmZJw2xmhOUaY-1" edge="1">
          <mxGeometry relative="1" as="geometry">
            <Array as="points">
              <mxPoint x="474" y="120" />
              <mxPoint x="270" y="120" />
            </Array>
          </mxGeometry>
        </mxCell>
        <mxCell id="Ng3tPyINmZJw2xmhOUaY-35" style="edgeStyle=orthogonalEdgeStyle;rounded=0;orthogonalLoop=1;jettySize=auto;html=1;entryX=0;entryY=0.588;entryDx=0;entryDy=0;entryPerimeter=0;" parent="1" source="Ng3tPyINmZJw2xmhOUaY-28" target="Ng3tPyINmZJw2xmhOUaY-14" edge="1">
          <mxGeometry relative="1" as="geometry" />
        </mxCell>
        <mxCell id="Ng3tPyINmZJw2xmhOUaY-36" style="edgeStyle=orthogonalEdgeStyle;rounded=0;orthogonalLoop=1;jettySize=auto;html=1;" parent="1" source="Ng3tPyINmZJw2xmhOUaY-29" target="Ng3tPyINmZJw2xmhOUaY-1" edge="1">
          <mxGeometry relative="1" as="geometry">
            <Array as="points">
              <mxPoint x="640" y="20" />
              <mxPoint x="270" y="20" />
            </Array>
          </mxGeometry>
        </mxCell>
        <mxCell id="Ng3tPyINmZJw2xmhOUaY-37" style="edgeStyle=orthogonalEdgeStyle;rounded=0;orthogonalLoop=1;jettySize=auto;html=1;" parent="1" source="Ng3tPyINmZJw2xmhOUaY-29" target="Ng3tPyINmZJw2xmhOUaY-10" edge="1">
          <mxGeometry relative="1" as="geometry" />
        </mxCell>
        <mxCell id="M0X-V-5y8funfRK-0tcY-10" value="CEP" style="text;html=1;align=center;verticalAlign=middle;whiteSpace=wrap;rounded=0;" parent="1" vertex="1">
          <mxGeometry x="379" y="1025" width="60" height="30" as="geometry" />
        </mxCell>
        <mxCell id="M0X-V-5y8funfRK-0tcY-13" value="" style="shape=cube;whiteSpace=wrap;html=1;boundedLbl=1;backgroundOutline=1;darkOpacity=0.05;darkOpacity2=0.1;" parent="1" vertex="1">
          <mxGeometry x="103" y="1320" width="585" height="140" as="geometry" />
        </mxCell>
        <mxCell id="M0X-V-5y8funfRK-0tcY-14" value="SQM" style="text;html=1;align=center;verticalAlign=middle;whiteSpace=wrap;rounded=0;" parent="1" vertex="1">
          <mxGeometry x="375" y="1390" width="60" height="30" as="geometry" />
        </mxCell>
        <mxCell id="M0X-V-5y8funfRK-0tcY-17" value="" style="shape=cube;whiteSpace=wrap;html=1;boundedLbl=1;backgroundOutline=1;darkOpacity=0.05;darkOpacity2=0.1;" parent="1" vertex="1">
          <mxGeometry x="740" y="1160" width="170" height="100" as="geometry" />
        </mxCell>
        <mxCell id="M0X-V-5y8funfRK-0tcY-18" value="NTTM" style="text;html=1;align=center;verticalAlign=middle;whiteSpace=wrap;rounded=0;" parent="1" vertex="1">
          <mxGeometry x="810" y="1200" width="60" height="30" as="geometry" />
        </mxCell>
        <mxCell id="M0X-V-5y8funfRK-0tcY-39" style="edgeStyle=orthogonalEdgeStyle;rounded=0;orthogonalLoop=1;jettySize=auto;html=1;entryX=0.727;entryY=0.007;entryDx=0;entryDy=0;entryPerimeter=0;" parent="1" source="M0X-V-5y8funfRK-0tcY-5" target="M0X-V-5y8funfRK-0tcY-13" edge="1">
          <mxGeometry relative="1" as="geometry" />
        </mxCell>
        <mxCell id="43ak4_L_ta3FqxEy_fTI-1" value="" style="shape=cube;whiteSpace=wrap;html=1;boundedLbl=1;backgroundOutline=1;darkOpacity=0.05;darkOpacity2=0.1;" parent="1" vertex="1">
          <mxGeometry x="1195" y="1010" width="185" height="100" as="geometry" />
        </mxCell>
        <mxCell id="43ak4_L_ta3FqxEy_fTI-5" value="CEP" style="text;html=1;align=center;verticalAlign=middle;whiteSpace=wrap;rounded=0;" parent="1" vertex="1">
          <mxGeometry x="1260" y="1055" width="60" height="30" as="geometry" />
        </mxCell>
        <mxCell id="43ak4_L_ta3FqxEy_fTI-6" value="" style="shape=cube;whiteSpace=wrap;html=1;boundedLbl=1;backgroundOutline=1;darkOpacity=0.05;darkOpacity2=0.1;" parent="1" vertex="1">
          <mxGeometry x="1185" y="1335" width="295" height="225" as="geometry" />
        </mxCell>
        <mxCell id="43ak4_L_ta3FqxEy_fTI-7" value="SQM" style="text;html=1;align=center;verticalAlign=middle;whiteSpace=wrap;rounded=0;" parent="1" vertex="1">
          <mxGeometry x="1211" y="1360" width="60" height="30" as="geometry" />
        </mxCell>
        <mxCell id="43ak4_L_ta3FqxEy_fTI-2" value="&lt;div&gt;KAFKA SQM&lt;/div&gt;" style="swimlane;whiteSpace=wrap;html=1;" parent="1" vertex="1">
          <mxGeometry x="1290" y="1362.5" width="180" height="187.5" as="geometry">
            <mxRectangle x="130" y="150" width="110" height="30" as="alternateBounds" />
          </mxGeometry>
        </mxCell>
        <mxCell id="43ak4_L_ta3FqxEy_fTI-3" value="topic: wink-out" style="rounded=0;whiteSpace=wrap;html=1;" parent="43ak4_L_ta3FqxEy_fTI-2" vertex="1">
          <mxGeometry x="30" y="37.5" width="140" height="20" as="geometry" />
        </mxCell>
        <mxCell id="43ak4_L_ta3FqxEy_fTI-4" value="topic: r-pick-out" style="rounded=0;whiteSpace=wrap;html=1;" parent="43ak4_L_ta3FqxEy_fTI-2" vertex="1">
          <mxGeometry x="30" y="67.5" width="140" height="20" as="geometry" />
        </mxCell>
        <mxCell id="43ak4_L_ta3FqxEy_fTI-15" value="topic: r-pick-hosts-out" style="rounded=0;whiteSpace=wrap;html=1;" parent="1" vertex="1">
          <mxGeometry x="1320" y="1460" width="140" height="20" as="geometry" />
        </mxCell>
        <mxCell id="43ak4_L_ta3FqxEy_fTI-16" value="topic: radacct-output" style="rounded=0;whiteSpace=wrap;html=1;" parent="1" vertex="1">
          <mxGeometry x="1320" y="1490" width="140" height="20" as="geometry" />
        </mxCell>
        <mxCell id="43ak4_L_ta3FqxEy_fTI-17" value="topic: metrics-sova-output" style="rounded=0;whiteSpace=wrap;html=1;" parent="1" vertex="1">
          <mxGeometry x="1320" y="1520" width="140" height="20" as="geometry" />
        </mxCell>
        <mxCell id="43ak4_L_ta3FqxEy_fTI-18" value="&lt;br&gt;&lt;br&gt;&lt;span style=&quot;font-size:12.0pt;line-height:115%;&lt;br/&gt;font-family:&amp;quot;Times New Roman&amp;quot;,serif;mso-fareast-font-family:&amp;quot;Times New Roman&amp;quot;;&lt;br/&gt;mso-ansi-language:RU;mso-fareast-language:RU;mso-bidi-language:AR-SA&quot;&gt;Центр &lt;/span&gt;&lt;span style=&quot;font-size:12.0pt;line-height:115%;&lt;br/&gt;font-family:&amp;quot;Times New Roman&amp;quot;,serif;mso-fareast-font-family:&amp;quot;Times New Roman&amp;quot;;&lt;br/&gt;mso-ansi-language:RU;mso-fareast-language:RU;mso-bidi-language:AR-SA&quot;&gt;мониторинга сети&amp;nbsp;&lt;/span&gt;&lt;div&gt;&lt;span style=&quot;font-size:12.0pt;line-height:115%;&lt;br/&gt;font-family:&amp;quot;Times New Roman&amp;quot;,serif;mso-fareast-font-family:&amp;quot;Times New Roman&amp;quot;;&lt;br/&gt;mso-ansi-language:RU;mso-fareast-language:RU;mso-bidi-language:AR-SA&quot;&gt;ПАО Ростелеком&lt;/span&gt;&lt;/div&gt;&lt;br&gt;&lt;div&gt;&lt;br&gt;&lt;/div&gt;" style="shape=cube;whiteSpace=wrap;html=1;boundedLbl=1;backgroundOutline=1;darkOpacity=0.05;darkOpacity2=0.1;" parent="1" vertex="1">
          <mxGeometry x="1654" y="1382.5" width="230" height="130" as="geometry" />
        </mxCell>
        <mxCell id="43ak4_L_ta3FqxEy_fTI-22" style="edgeStyle=orthogonalEdgeStyle;rounded=0;orthogonalLoop=1;jettySize=auto;html=1;" parent="1" source="43ak4_L_ta3FqxEy_fTI-18" target="43ak4_L_ta3FqxEy_fTI-6" edge="1">
          <mxGeometry relative="1" as="geometry" />
        </mxCell>
        <mxCell id="43ak4_L_ta3FqxEy_fTI-23" value="НОП" style="text;html=1;align=center;verticalAlign=middle;whiteSpace=wrap;rounded=0;" parent="1" vertex="1">
          <mxGeometry x="1340" y="1290" width="60" height="30" as="geometry" />
        </mxCell>
        <mxCell id="43ak4_L_ta3FqxEy_fTI-24" value="КСПД РТК" style="text;html=1;align=center;verticalAlign=middle;whiteSpace=wrap;rounded=0;" parent="1" vertex="1">
          <mxGeometry x="1720" y="1290" width="70" height="30" as="geometry" />
        </mxCell>
        <mxCell id="43ak4_L_ta3FqxEy_fTI-30" value="UserGate" style="shape=mxgraph.cisco.security.ios_firewall;html=1;pointerEvents=1;dashed=0;fillColor=#036897;strokeColor=#ffffff;strokeWidth=2;verticalLabelPosition=bottom;verticalAlign=top;align=center;outlineConnect=0;" parent="1" vertex="1">
          <mxGeometry x="1550" y="1454" width="40" height="66" as="geometry" />
        </mxCell>
        <mxCell id="v_URH__aFRRFZnjGPoym-1" value="" style="rounded=0;whiteSpace=wrap;html=1;" parent="1" vertex="1">
          <mxGeometry x="1580" y="1290" width="360" height="320" as="geometry" />
        </mxCell>
        <mxCell id="v_URH__aFRRFZnjGPoym-2" value="" style="rounded=0;whiteSpace=wrap;html=1;" parent="1" vertex="1">
          <mxGeometry x="1180" y="1290" width="400" height="320" as="geometry" />
        </mxCell>
        <mxCell id="v_URH__aFRRFZnjGPoym-3" value="" style="shape=cube;whiteSpace=wrap;html=1;boundedLbl=1;backgroundOutline=1;darkOpacity=0.05;darkOpacity2=0.1;" parent="1" vertex="1">
          <mxGeometry x="1195" y="1345" width="295" height="225" as="geometry" />
        </mxCell>
        <mxCell id="v_URH__aFRRFZnjGPoym-4" value="SQM" style="text;html=1;align=center;verticalAlign=middle;whiteSpace=wrap;rounded=0;" parent="1" vertex="1">
          <mxGeometry x="1221" y="1370" width="60" height="30" as="geometry" />
        </mxCell>
        <mxCell id="v_URH__aFRRFZnjGPoym-5" value="&lt;div&gt;KAFKA SQM&lt;/div&gt;" style="swimlane;whiteSpace=wrap;html=1;" parent="1" vertex="1">
          <mxGeometry x="1300" y="1372.5" width="180" height="187.5" as="geometry">
            <mxRectangle x="130" y="150" width="110" height="30" as="alternateBounds" />
          </mxGeometry>
        </mxCell>
        <mxCell id="v_URH__aFRRFZnjGPoym-6" value="topic: wink-out" style="rounded=0;whiteSpace=wrap;html=1;" parent="v_URH__aFRRFZnjGPoym-5" vertex="1">
          <mxGeometry x="30" y="37.5" width="140" height="20" as="geometry" />
        </mxCell>
        <mxCell id="v_URH__aFRRFZnjGPoym-7" value="topic: r-pick-out" style="rounded=0;whiteSpace=wrap;html=1;" parent="v_URH__aFRRFZnjGPoym-5" vertex="1">
          <mxGeometry x="30" y="67.5" width="140" height="20" as="geometry" />
        </mxCell>
        <mxCell id="v_URH__aFRRFZnjGPoym-8" value="topic: r-pick-hosts-out" style="rounded=0;whiteSpace=wrap;html=1;" parent="1" vertex="1">
          <mxGeometry x="1330" y="1470" width="140" height="20" as="geometry" />
        </mxCell>
        <mxCell id="v_URH__aFRRFZnjGPoym-9" value="topic: radacct-output" style="rounded=0;whiteSpace=wrap;html=1;" parent="1" vertex="1">
          <mxGeometry x="1330" y="1500" width="140" height="20" as="geometry" />
        </mxCell>
        <mxCell id="v_URH__aFRRFZnjGPoym-10" value="topic: metrics-sova-output" style="rounded=0;whiteSpace=wrap;html=1;" parent="1" vertex="1">
          <mxGeometry x="1330" y="1530" width="140" height="20" as="geometry" />
        </mxCell>
        <mxCell id="v_URH__aFRRFZnjGPoym-11" value="&lt;br&gt;&lt;br&gt;&lt;span style=&quot;font-size:12.0pt;line-height:115%;&lt;br/&gt;font-family:&amp;quot;Times New Roman&amp;quot;,serif;mso-fareast-font-family:&amp;quot;Times New Roman&amp;quot;;&lt;br/&gt;mso-ansi-language:RU;mso-fareast-language:RU;mso-bidi-language:AR-SA&quot;&gt;Центр &lt;/span&gt;&lt;span style=&quot;font-size:12.0pt;line-height:115%;&lt;br/&gt;font-family:&amp;quot;Times New Roman&amp;quot;,serif;mso-fareast-font-family:&amp;quot;Times New Roman&amp;quot;;&lt;br/&gt;mso-ansi-language:RU;mso-fareast-language:RU;mso-bidi-language:AR-SA&quot;&gt;мониторинга сети&amp;nbsp;&lt;/span&gt;&lt;div&gt;&lt;span style=&quot;font-size:12.0pt;line-height:115%;&lt;br/&gt;font-family:&amp;quot;Times New Roman&amp;quot;,serif;mso-fareast-font-family:&amp;quot;Times New Roman&amp;quot;;&lt;br/&gt;mso-ansi-language:RU;mso-fareast-language:RU;mso-bidi-language:AR-SA&quot;&gt;ПАО Ростелеком&lt;/span&gt;&lt;/div&gt;&lt;br&gt;&lt;div&gt;&lt;br&gt;&lt;/div&gt;" style="shape=cube;whiteSpace=wrap;html=1;boundedLbl=1;backgroundOutline=1;darkOpacity=0.05;darkOpacity2=0.1;" parent="1" vertex="1">
          <mxGeometry x="1664" y="1392.5" width="230" height="130" as="geometry" />
        </mxCell>
        <mxCell id="v_URH__aFRRFZnjGPoym-12" style="edgeStyle=orthogonalEdgeStyle;rounded=0;orthogonalLoop=1;jettySize=auto;html=1;" parent="1" source="v_URH__aFRRFZnjGPoym-11" target="v_URH__aFRRFZnjGPoym-3" edge="1">
          <mxGeometry relative="1" as="geometry" />
        </mxCell>
        <mxCell id="v_URH__aFRRFZnjGPoym-13" value="НОП" style="text;html=1;align=center;verticalAlign=middle;whiteSpace=wrap;rounded=0;" parent="1" vertex="1">
          <mxGeometry x="1350" y="1300" width="60" height="30" as="geometry" />
        </mxCell>
        <mxCell id="v_URH__aFRRFZnjGPoym-14" value="КСПД РТК" style="text;html=1;align=center;verticalAlign=middle;whiteSpace=wrap;rounded=0;" parent="1" vertex="1">
          <mxGeometry x="1730" y="1300" width="70" height="30" as="geometry" />
        </mxCell>
        <mxCell id="v_URH__aFRRFZnjGPoym-15" value="UserGate" style="shape=mxgraph.cisco.security.ios_firewall;html=1;pointerEvents=1;dashed=0;fillColor=#036897;strokeColor=#ffffff;strokeWidth=2;verticalLabelPosition=bottom;verticalAlign=top;align=center;outlineConnect=0;" parent="1" vertex="1">
          <mxGeometry x="1560" y="1464" width="40" height="66" as="geometry" />
        </mxCell>
        <mxCell id="v_URH__aFRRFZnjGPoym-24" style="edgeStyle=orthogonalEdgeStyle;rounded=0;orthogonalLoop=1;jettySize=auto;html=1;" parent="1" source="v_URH__aFRRFZnjGPoym-16" target="v_URH__aFRRFZnjGPoym-23" edge="1">
          <mxGeometry relative="1" as="geometry" />
        </mxCell>
        <mxCell id="v_URH__aFRRFZnjGPoym-25" value="TCP: 20010" style="edgeLabel;html=1;align=center;verticalAlign=middle;resizable=0;points=[];" parent="v_URH__aFRRFZnjGPoym-24" vertex="1" connectable="0">
          <mxGeometry x="-0.0484" relative="1" as="geometry">
            <mxPoint as="offset" />
          </mxGeometry>
        </mxCell>
        <mxCell id="v_URH__aFRRFZnjGPoym-16" value="" style="rounded=1;whiteSpace=wrap;html=1;" parent="1" vertex="1">
          <mxGeometry x="1335" y="1847" width="225" height="153" as="geometry" />
        </mxCell>
        <mxCell id="v_URH__aFRRFZnjGPoym-19" value="CRM" style="text;html=1;align=center;verticalAlign=middle;whiteSpace=wrap;rounded=0;" parent="1" vertex="1">
          <mxGeometry x="1423" y="1950" width="60" height="30" as="geometry" />
        </mxCell>
        <mxCell id="v_URH__aFRRFZnjGPoym-20" value="SQM" style="text;html=1;align=center;verticalAlign=middle;whiteSpace=wrap;rounded=0;" parent="1" vertex="1">
          <mxGeometry x="1056.5" y="1950" width="60" height="30" as="geometry" />
        </mxCell>
        <mxCell id="v_URH__aFRRFZnjGPoym-22" value="kafka" style="text;html=1;align=center;verticalAlign=middle;whiteSpace=wrap;rounded=0;" parent="1" vertex="1">
          <mxGeometry x="1058" y="1865" width="60" height="30" as="geometry" />
        </mxCell>
        <mxCell id="v_URH__aFRRFZnjGPoym-23" value="topic&lt;br&gt;&quot;crm_requests&quot;" style="rounded=0;whiteSpace=wrap;html=1;" parent="1" vertex="1">
          <mxGeometry x="1033.75" y="1907.5" width="108.5" height="32" as="geometry" />
        </mxCell>
        <mxCell id="cNODSZMe_9CNLNFrirEU-7" value="" style="shape=flexArrow;endArrow=classic;html=1;rounded=0;entryX=0.5;entryY=1;entryDx=0;entryDy=0;exitX=0.133;exitY=0;exitDx=0;exitDy=0;exitPerimeter=0;fillColor=#FFFFFF;" edge="1" parent="1" source="M0X-V-5y8funfRK-0tcY-13" target="cNODSZMe_9CNLNFrirEU-1">
          <mxGeometry width="50" height="50" relative="1" as="geometry">
            <mxPoint x="181" y="1301" as="sourcePoint" />
            <mxPoint x="225" y="1262" as="targetPoint" />
          </mxGeometry>
        </mxCell>
        <mxCell id="cNODSZMe_9CNLNFrirEU-9" value="" style="shape=flexArrow;endArrow=classic;html=1;rounded=0;exitX=0.5;exitY=0;exitDx=0;exitDy=0;entryX=0.137;entryY=1.004;entryDx=0;entryDy=0;entryPerimeter=0;fillColor=#FFFFFF;" edge="1" parent="1" source="cNODSZMe_9CNLNFrirEU-1" target="M0X-V-5y8funfRK-0tcY-36">
          <mxGeometry width="50" height="50" relative="1" as="geometry">
            <mxPoint x="269" y="1208" as="sourcePoint" />
            <mxPoint x="181" y="1085" as="targetPoint" />
          </mxGeometry>
        </mxCell>
        <mxCell id="cNODSZMe_9CNLNFrirEU-11" value="" style="shape=flexArrow;endArrow=classic;html=1;rounded=0;fillColor=#FFFFFF;entryX=1;entryY=0.5;entryDx=0;entryDy=0;" edge="1" parent="1" target="M0X-V-5y8funfRK-0tcY-5">
          <mxGeometry width="50" height="50" relative="1" as="geometry">
            <mxPoint x="739" y="1232" as="sourcePoint" />
            <mxPoint x="602" y="1233" as="targetPoint" />
          </mxGeometry>
        </mxCell>
        <mxCell id="cNODSZMe_9CNLNFrirEU-12" value="" style="shape=flexArrow;endArrow=classic;html=1;rounded=0;entryX=0.372;entryY=0.004;entryDx=0;entryDy=0;fillColor=#FFFFFF;exitX=0.5;exitY=1;exitDx=0;exitDy=0;entryPerimeter=0;" edge="1" parent="1" source="cNODSZMe_9CNLNFrirEU-2" target="M0X-V-5y8funfRK-0tcY-13">
          <mxGeometry width="50" height="50" relative="1" as="geometry">
            <mxPoint x="321.5" y="1246" as="sourcePoint" />
            <mxPoint x="320.5" y="1386" as="targetPoint" />
          </mxGeometry>
        </mxCell>
        <mxCell id="cNODSZMe_9CNLNFrirEU-13" value="" style="shape=flexArrow;endArrow=classic;html=1;rounded=0;exitX=0.516;exitY=0.028;exitDx=0;exitDy=0;entryX=0.137;entryY=1.004;entryDx=0;entryDy=0;entryPerimeter=0;fillColor=#FFFFFF;exitPerimeter=0;" edge="1" parent="1" source="M0X-V-5y8funfRK-0tcY-5">
          <mxGeometry width="50" height="50" relative="1" as="geometry">
            <mxPoint x="530" y="1216" as="sourcePoint" />
            <mxPoint x="531" y="1076" as="targetPoint" />
          </mxGeometry>
        </mxCell>
        <mxCell id="cNODSZMe_9CNLNFrirEU-14" value="" style="shape=flexArrow;endArrow=classic;html=1;rounded=0;exitX=0.866;exitY=0.99;exitDx=0;exitDy=0;entryX=0.5;entryY=0;entryDx=0;entryDy=0;fillColor=#FFFFFF;exitPerimeter=0;" edge="1" parent="1" source="M0X-V-5y8funfRK-0tcY-36" target="M0X-V-5y8funfRK-0tcY-4">
          <mxGeometry width="50" height="50" relative="1" as="geometry">
            <mxPoint x="541" y="1232" as="sourcePoint" />
            <mxPoint x="541" y="1086" as="targetPoint" />
          </mxGeometry>
        </mxCell>
        <mxCell id="cNODSZMe_9CNLNFrirEU-15" value="" style="shape=flexArrow;endArrow=classic;html=1;rounded=0;fillColor=#FFFFFF;entryX=0.004;entryY=0.306;entryDx=0;entryDy=0;entryPerimeter=0;exitX=1;exitY=0.5;exitDx=0;exitDy=0;" edge="1" parent="1" source="M0X-V-5y8funfRK-0tcY-4" target="M0X-V-5y8funfRK-0tcY-17">
          <mxGeometry width="50" height="50" relative="1" as="geometry">
            <mxPoint x="749" y="1242" as="sourcePoint" />
            <mxPoint x="599" y="1241" as="targetPoint" />
          </mxGeometry>
        </mxCell>
      </root>
    </mxGraphModel>
  </diagram>
</mxfile>
